<svg xmlns="http://www.w3.org/2000/svg" width="447.194" height="354.249" viewBox="0 0 447.194 354.249">
  <g id="Group_2177" data-name="Group 2177" transform="translate(-460 -1138)">
    <g id="Group_1721" data-name="Group 1721" transform="translate(-275 -827)">
      <g id="Group_1661" data-name="Group 1661" transform="translate(667.001 1816)">
        <path id="Union_40" data-name="Union 40" d="M137.455,354.249a13.637,13.637,0,0,1,0-27.274h38.657c11.1,0,13.636-7.058,13.636-13.636a13.635,13.635,0,0,0-11.06-13.394c-38.623-.107-72.183-.243-75.317-.243H23.051a13.636,13.636,0,0,1,0-27.273H130.487a13.635,13.635,0,0,0,1.434-27.194H94.592a13.039,13.039,0,0,1-1.435-.078H83.576a13.636,13.636,0,1,1,0-27.273h51.067a13.635,13.635,0,0,0-1.421-27.2h-17.8c-.144,0-.274-.026-.418-.026H34.476a13.63,13.63,0,1,1,0-27.26H93.958a13.636,13.636,0,0,0,0-27.273H13.639a13.643,13.643,0,0,1,0-27.286H121.074a13.634,13.634,0,0,0,2.569-27.025H106.017a13.825,13.825,0,0,1-2.569-.247H95A13.636,13.636,0,1,1,95,54.3c35.461,0,74.818.049,117.178.1a13.633,13.633,0,0,0-1.918-27.131H171.623a13.636,13.636,0,0,1,0-27.271H285.539a13.635,13.635,0,0,1,0,27.271H267.723a13.636,13.636,0,0,0-1.4,27.2c37.084.042,75.973.076,116.162.076a13.636,13.636,0,1,1,0,27.273H275.046a13.634,13.634,0,0,0-2.568,27.025h80.153a13.825,13.825,0,0,1,2.569.248h8.435a13.636,13.636,0,0,1,0,27.273H339.744a13.633,13.633,0,0,0,2.555,27.025h59.482l-69.583.026H433.559a13.636,13.636,0,1,1,0,27.273h-80.32a13.636,13.636,0,1,0,0,27.273H412.72a13.637,13.637,0,1,1,0,27.274h-86.6a13.635,13.635,0,0,0-1.434,27.194H341.18a13.014,13.014,0,0,1,1.434.078H352.2a13.636,13.636,0,1,1,0,27.273h-51.08c-1.659.17-13.613.253-30.9.282a13.636,13.636,0,0,0,3.112,26.913H313.9a13.637,13.637,0,0,1,0,27.274Z" transform="translate(515.194 503.249) rotate(180)" fill="#141219"/>
      </g>
    </g>
    <path id="Path_3977" data-name="Path 3977" d="M84.548,0A84.467,84.467,0,1,1,5.119,55.51,84.561,84.561,0,0,1,84.548,0Z" transform="translate(599.5 1228.495)" fill="none" stroke="#25222e" stroke-linecap="round" stroke-width="4" stroke-dasharray="19"/>
    <g id="Group_2174" data-name="Group 2174" transform="translate(-28 -61.423)">
      <g id="nodejs-icon_copy_3" data-name="nodejs-icon copy 3" transform="translate(658.411 1245.859)">
        <path id="Shape" d="M48.38,1.222a10.029,10.029,0,0,1,9.595,0q21.912,12.1,43.825,24.191a8.785,8.785,0,0,1,4.557,7.593V81.537a8.892,8.892,0,0,1-4.9,7.758q-21.84,12.033-43.669,24.076a9.742,9.742,0,0,1-9.7-.263q-6.548-3.709-13.1-7.4a7.711,7.711,0,0,1-2.528-1.779c.557-.733,1.552-.825,2.361-1.145a30.919,30.919,0,0,0,5.169-2.357,1.23,1.23,0,0,1,1.346.079c3.733,2.091,7.432,4.244,11.177,6.315.8.451,1.608-.148,2.291-.52Q76.236,94.46,97.682,82.65a1.38,1.38,0,0,0,.779-1.365q.015-24.014.005-48.03a1.5,1.5,0,0,0-.915-1.5Q75.787,19.781,54.033,7.788a1.541,1.541,0,0,0-1.709,0Q30.564,19.771,8.811,31.765a1.48,1.48,0,0,0-.92,1.49q0,24.014,0,48.033a1.353,1.353,0,0,0,.789,1.347q5.807,3.218,11.621,6.413c2.182,1.148,4.862,1.83,7.266.95a5.392,5.392,0,0,0,3.569-5.061c.02-15.916-.01-31.834.015-47.747a1.215,1.215,0,0,1,1.336-1.224c1.86-.012,3.723-.024,5.583,0a1.267,1.267,0,0,1,1.215,1.455c-.008,16.017.02,32.033-.013,48.05.005,4.269-1.789,8.913-5.83,11C28.465,99,22.313,98.465,17.4,96.049c-4.257-2.076-8.319-4.527-12.5-6.751A8.871,8.871,0,0,1,0,81.538V33.007a8.806,8.806,0,0,1,4.713-7.689Q26.549,13.274,48.38,1.222Z" transform="translate(0 0)" fill="#78b743" stroke="rgba(196,196,196,0)" stroke-width="1"/>
        <path id="Shape-2" data-name="Shape" d="M17.594.158c6.349-.4,13.146-.237,18.859,2.82,4.423,2.342,6.876,7.258,6.954,12.061A1.335,1.335,0,0,1,41.958,16c-1.842,0-3.685.024-5.527-.012a1.407,1.407,0,0,1-1.334-1.35,8.226,8.226,0,0,0-4.025-5.682c-3.4-1.662-7.337-1.579-11.041-1.544-2.7.14-5.613.369-7.9,1.923A4.828,4.828,0,0,0,10.462,14.8c.592,1.374,2.215,1.818,3.544,2.226,7.651,1.956,15.759,1.761,23.265,4.335,3.107,1.049,6.147,3.089,7.211,6.268,1.391,4.261.781,9.355-2.321,12.776-2.516,2.815-6.18,4.347-9.835,5.179a48.329,48.329,0,0,1-14.844.616c-4.643-.517-9.474-1.709-13.058-4.8A13.24,13.24,0,0,1,.01,30.839a1.231,1.231,0,0,1,1.356-1.067c1.855-.015,3.71-.02,5.565,0a1.287,1.287,0,0,1,1.328,1.256c.342,2.189,1.184,4.487,3.138,5.785,3.77,2.377,8.5,2.214,12.818,2.281,3.576-.155,7.591-.2,10.51-2.512a5.588,5.588,0,0,0,1.58-5.419c-.451-1.6-2.165-2.347-3.637-2.835C25.115,26,16.916,26.844,9.436,24.2,6.4,23.155,3.463,21.172,2.3,18.123.668,13.808,1.414,8.471,4.841,5.165,8.183,1.877,13.007.611,17.594.158Z" transform="translate(43.486 34.681)" fill="#78b743" stroke="rgba(196,196,196,0)" stroke-width="1"/>
      </g>
      <g id="React" transform="translate(721.338 1366.046)">
        <path id="Union_17" data-name="Union 17" d="M60.517,94.649c-8.678,8.321-17.24,13.315-24.137,13.079a11.928,11.928,0,0,1-6.182-1.544c-6.066-3.448-8.321-12.486-6.3-25.21q.558-3.478,1.427-6.9a55.05,55.05,0,0,1-6.657-2.141C6.657,67.419,0,61,0,53.864,0,46.851,6.657,40.43,18.668,35.793c2.141-.712,4.282-1.43,6.657-2.141-.6-2.381-1.072-4.637-1.427-6.9-2.141-12.724.119-21.641,6.3-25.21A11.943,11.943,0,0,1,36.38,0C43.271,0,51.834,4.992,60.4,13.436,69.074,4.992,77.756,0,84.534,0a11.96,11.96,0,0,1,6.18,1.544C96.9,5.113,99.155,14.151,97.135,27.11c-.355,2.262-.831,4.522-1.427,6.9a55.1,55.1,0,0,1,6.658,2.139c12.01,4.516,18.667,10.94,18.667,18.073,0,7.013-6.657,13.434-18.667,18.071-2.141.712-4.282,1.429-6.658,2.141.6,2.381,1.072,4.637,1.427,6.9,2.141,12.722-.119,21.639-6.3,25.21a11.959,11.959,0,0,1-6.182,1.544C77.756,108.084,69.2,103.09,60.517,94.649Zm13.91-16.527A124.253,124.253,0,0,1,64.322,90.608C71.455,97.741,78.709,102.5,84.534,102.5a6.43,6.43,0,0,0,3.448-.833h.006c4.041-2.26,5.349-9.514,3.684-19.621a60.639,60.639,0,0,0-1.308-6.422A109.25,109.25,0,0,1,74.427,78.122ZM29.362,82.046h0C27.7,92.153,29,99.407,33.051,101.667a6.716,6.716,0,0,0,3.448.833c5.827,0,13.079-4.877,20.212-11.891A109.879,109.879,0,0,1,46.606,78.122a153.152,153.152,0,0,1-15.935-2.5C30.192,77.886,29.717,80.025,29.362,82.046Zm31.15,4.518q3.509-3.829,6.657-7.966c-2.141.119-4.4.119-6.657.119s-4.516,0-6.658-.119Q57,82.733,60.512,86.564ZM49.693,35.081c-2.02,3.093-4.041,6.18-5.825,9.272-1.905,3.21-3.569,6.422-5.113,9.631q2.348,4.922,5.113,9.629,2.722,4.755,5.827,9.274a162.945,162.945,0,0,0,21.645,0c2.02-3.093,4.041-6.182,5.825-9.274q2.767-4.7,5.113-9.629c-1.545-3.21-3.208-6.421-5.113-9.631-1.784-3.093-3.686-6.18-5.825-9.272q-5.407-.359-10.824-.36T49.693,35.081ZM32.218,70.392Q37.41,71.5,42.68,72.176c-1.308-1.9-2.381-3.8-3.569-5.825v-.006c-1.189-1.9-2.256-3.925-3.21-5.825C34.479,63.85,33.291,67.182,32.218,70.392ZM85.249,60.41c-1.067,2.02-2.135,4.041-3.208,5.825-1.193,2.02-2.381,3.922-3.569,5.827,3.684-.478,7.133-1.075,10.462-1.786-1.069-3.212-2.257-6.54-3.686-9.869Zm3.1-6.425a124.885,124.885,0,0,1,5.825,14.982c2.141-.591,4.276-1.306,6.182-2.02,9.629-3.687,15.1-8.325,15.1-12.962,0-5.354-7.964-11.178-21.281-14.983A107.573,107.573,0,0,1,88.348,53.985ZM20.678,41.025c-9.629,3.685-15.1,8.323-15.1,12.96,0,5.353,7.964,11.177,21.283,14.981a113.708,113.708,0,0,1,5.823-14.977A125.149,125.149,0,0,1,26.86,39C24.719,39.6,22.583,40.313,20.678,41.025ZM35.9,47.678c.948-2.02,2.016-3.925,3.208-5.946s2.381-3.92,3.57-5.825c-3.685.476-7.134,1.073-10.461,1.784A79.361,79.361,0,0,0,35.9,47.678Zm46.143-6.06,3.208,5.946v0c1.424-3.333,2.617-6.661,3.686-9.99-3.329-.712-6.778-1.309-10.462-1.784C79.782,37.692,80.854,39.6,82.042,41.618Zm-17.6-24.258A109.876,109.876,0,0,1,74.542,29.847a152.974,152.974,0,0,1,15.937,2.5c.476-2.26.952-4.4,1.307-6.421C93.451,15.7,92.028,8.563,88.1,6.3a6.742,6.742,0,0,0-3.449-.831h0C78.824,5.47,71.57,10.341,64.437,17.359ZM29.356,25.922a61,61,0,0,0,1.309,6.421,109.231,109.231,0,0,1,15.935-2.5A123.6,123.6,0,0,1,56.707,17.359C49.574,10.226,42.32,5.47,36.5,5.47a6.459,6.459,0,0,0-3.449.831h0C29,8.681,27.693,15.817,29.356,25.922Zm37.817,3.449c-2.139-2.732-4.4-5.47-6.658-7.966C58.261,23.9,56,26.518,53.86,29.371c2.139-.121,4.4-.121,6.656-.121S65.034,29.251,67.173,29.371ZM49.459,53.985A11.059,11.059,0,1,1,60.517,65.043,11.058,11.058,0,0,1,49.459,53.985Z" transform="translate(0 0)" fill="#2ac7e3"/>
      </g>
      <g id="React-2" data-name="React" transform="translate(582 1366.046)">
        <path id="Union_17-2" data-name="Union 17" d="M60.517,94.649c-8.678,8.321-17.24,13.315-24.137,13.079a11.928,11.928,0,0,1-6.182-1.544c-6.066-3.448-8.321-12.486-6.3-25.21q.558-3.478,1.427-6.9a55.05,55.05,0,0,1-6.657-2.141C6.657,67.419,0,61,0,53.864,0,46.851,6.657,40.43,18.668,35.793c2.141-.712,4.282-1.43,6.657-2.141-.6-2.381-1.072-4.637-1.427-6.9-2.141-12.724.119-21.641,6.3-25.21A11.943,11.943,0,0,1,36.38,0C43.271,0,51.834,4.992,60.4,13.436,69.074,4.992,77.756,0,84.534,0a11.96,11.96,0,0,1,6.18,1.544C96.9,5.113,99.155,14.151,97.135,27.11c-.355,2.262-.831,4.522-1.427,6.9a55.1,55.1,0,0,1,6.658,2.139c12.01,4.516,18.667,10.94,18.667,18.073,0,7.013-6.657,13.434-18.667,18.071-2.141.712-4.282,1.429-6.658,2.141.6,2.381,1.072,4.637,1.427,6.9,2.141,12.722-.119,21.639-6.3,25.21a11.959,11.959,0,0,1-6.182,1.544C77.756,108.084,69.2,103.09,60.517,94.649Zm13.91-16.527A124.253,124.253,0,0,1,64.322,90.608C71.455,97.741,78.709,102.5,84.534,102.5a6.43,6.43,0,0,0,3.448-.833h.006c4.041-2.26,5.349-9.514,3.684-19.621a60.639,60.639,0,0,0-1.308-6.422A109.25,109.25,0,0,1,74.427,78.122ZM29.362,82.046h0C27.7,92.153,29,99.407,33.051,101.667a6.716,6.716,0,0,0,3.448.833c5.827,0,13.079-4.877,20.212-11.891A109.879,109.879,0,0,1,46.606,78.122a153.152,153.152,0,0,1-15.935-2.5C30.192,77.886,29.717,80.025,29.362,82.046Zm31.15,4.518q3.509-3.829,6.657-7.966c-2.141.119-4.4.119-6.657.119s-4.516,0-6.658-.119Q57,82.733,60.512,86.564ZM49.693,35.081c-2.02,3.093-4.041,6.18-5.825,9.272-1.905,3.21-3.569,6.422-5.113,9.631q2.348,4.922,5.113,9.629,2.722,4.755,5.827,9.274a162.945,162.945,0,0,0,21.645,0c2.02-3.093,4.041-6.182,5.825-9.274q2.767-4.7,5.113-9.629c-1.545-3.21-3.208-6.421-5.113-9.631-1.784-3.093-3.686-6.18-5.825-9.272q-5.407-.359-10.824-.36T49.693,35.081ZM32.218,70.392Q37.41,71.5,42.68,72.176c-1.308-1.9-2.381-3.8-3.569-5.825v-.006c-1.189-1.9-2.256-3.925-3.21-5.825C34.479,63.85,33.291,67.182,32.218,70.392ZM85.249,60.41c-1.067,2.02-2.135,4.041-3.208,5.825-1.193,2.02-2.381,3.922-3.569,5.827,3.684-.478,7.133-1.075,10.462-1.786-1.069-3.212-2.257-6.54-3.686-9.869Zm3.1-6.425a124.885,124.885,0,0,1,5.825,14.982c2.141-.591,4.276-1.306,6.182-2.02,9.629-3.687,15.1-8.325,15.1-12.962,0-5.354-7.964-11.178-21.281-14.983A107.573,107.573,0,0,1,88.348,53.985ZM20.678,41.025c-9.629,3.685-15.1,8.323-15.1,12.96,0,5.353,7.964,11.177,21.283,14.981a113.708,113.708,0,0,1,5.823-14.977A125.149,125.149,0,0,1,26.86,39C24.719,39.6,22.583,40.313,20.678,41.025ZM35.9,47.678c.948-2.02,2.016-3.925,3.208-5.946s2.381-3.92,3.57-5.825c-3.685.476-7.134,1.073-10.461,1.784A79.361,79.361,0,0,0,35.9,47.678Zm46.143-6.06,3.208,5.946v0c1.424-3.333,2.617-6.661,3.686-9.99-3.329-.712-6.778-1.309-10.462-1.784C79.782,37.692,80.854,39.6,82.042,41.618Zm-17.6-24.258A109.876,109.876,0,0,1,74.542,29.847a152.974,152.974,0,0,1,15.937,2.5c.476-2.26.952-4.4,1.307-6.421C93.451,15.7,92.028,8.563,88.1,6.3a6.742,6.742,0,0,0-3.449-.831h0C78.824,5.47,71.57,10.341,64.437,17.359ZM29.356,25.922a61,61,0,0,0,1.309,6.421,109.231,109.231,0,0,1,15.935-2.5A123.6,123.6,0,0,1,56.707,17.359C49.574,10.226,42.32,5.47,36.5,5.47a6.459,6.459,0,0,0-3.449.831h0C29,8.681,27.693,15.817,29.356,25.922Zm37.817,3.449c-2.139-2.732-4.4-5.47-6.658-7.966C58.261,23.9,56,26.518,53.86,29.371c2.139-.121,4.4-.121,6.656-.121S65.034,29.251,67.173,29.371ZM49.459,53.985A11.059,11.059,0,1,1,60.517,65.043,11.058,11.058,0,0,1,49.459,53.985Z" transform="translate(0 0)" fill="#6978ff"/>
      </g>
    </g>
  </g>
</svg>
